<svg version="1.1" id="Layer_1" xmlns="http://www.w3.org/2000/svg" xmlns:xlink="http://www.w3.org/1999/xlink" x="0px" y="0px" viewBox="0 0 766.9 1607.5" enable-background="new 0 0 766.9 1607.5" xml:space="preserve"><g id="IPHONE5C_x5F_FRONT"><g><path fill="#4BB1E5" d="M739.1,46.7c-15.5-17.9-44.5-39.1-94.8-39.1h-7.5H137.1h-7.5c-50.3,0-79.3,21.3-94.8,39.1C17.1,67.1,6.9,94.7,6.9,122.5v35.1v1299.9v35c0,27.8,10.2,55.5,27.9,75.9c15.5,17.9,44.5,39.1,94.8,39.1h7.5h499.7h7.5c50.3,0,79.3-21.3,94.8-39.1c17.7-20.4,27.9-48.1,27.9-75.9v-35V157.6v-35.1C766.9,94.7,756.8,67.1,739.1,46.7z"/><path fill="#231F20" d="M644.3,22.5h-7.5H137.1h-7.5c-79,0-107.7,57.2-107.7,100v35.1v1299.9v35.1c0,42.8,28.7,100,107.7,100h7.5h499.7h7.5c79,0,107.7-57.2,107.7-100v-35.1V157.6v-35.1C751.9,79.7,723.3,22.5,644.3,22.5z"/><g><linearGradient id="SVGID_1_" gradientUnits="userSpaceOnUse" x1="12.0176" y1="807.533" x2="16.4589" y2="807.533"><stop  offset="0" style="stop-color:#FFFFFF"/><stop  offset="1" style="stop-color:#56B8E8;stop-opacity:0"/></linearGradient><path fill="url(#SVGID_1_)" d="M16.2,1503.5v-35.6V147.1v-35.6c0-24.8,13.6-54.4,36.7-75.3c-5.1,4.2-9.3,8.4-12.9,12.5c-17.7,20.4-27.8,48-27.8,75.7v35v1296.3v35c0,27.7,10.1,55.3,27.8,75.7c3.5,4.1,7.8,8.4,12.9,12.5C29.7,1558,16.2,1528.4,16.2,1503.5z"/></g><g><linearGradient id="SVGID_2_" gradientUnits="userSpaceOnUse" x1="-1011.0283" y1="807.533" x2="-1006.5869" y2="807.533" gradientTransform="matrix(-1 0 0 1 -249.7949 0)"><stop  offset="0" style="stop-color:#FFFFFF"/><stop  offset="1" style="stop-color:#56B8E8;stop-opacity:0"/></linearGradient><path fill="url(#SVGID_2_)" d="M757.1,1503.5v-35.6V147.1v-35.6c0-24.8-13.6-54.4-36.7-75.3c5.1,4.2,9.3,8.4,12.9,12.5c17.7,20.4,27.8,48,27.8,75.7v35v1296.3v35c0,27.7-10.1,55.3-27.8,75.7c-3.5,4.1-7.8,8.4-12.9,12.5C743.5,1558,757.1,1528.4,757.1,1503.5z"/></g><path fill="#010101" d="M692,37.6c-13.8-6-29.9-9.1-47.7-9.1h-7.5H137.1h-7.5c-17.9,0-33.9,3.1-47.7,9.1c-12.2,5.3-22.7,13-31.2,22.8c-14.4,16.7-22.7,39.3-22.7,62.1v35.1v1299.9v35.1c0,22.8,8.3,45.5,22.7,62.1c8.5,9.8,19,17.4,31.2,22.8c13.8,6,29.9,9.1,47.7,9.1h7.5h499.7h7.5c17.9,0,33.9-3.1,47.7-9.1c12.2-5.3,22.7-13,31.2-22.8c14.4-16.7,22.7-39.3,22.7-62.1v-35.1V157.6v-35.1c0-22.8-8.3-45.5-22.7-62.1C714.7,50.6,704.2,43,692,37.6z"/><g><path opacity="0.3" fill="#FFFFFF" d="M456.9,1481.5c0,38.7-31.3,70-70,70c-38.7,0-70-31.3-70-70c0-38.7,31.3-70,70-70C425.6,1411.5,456.9,1442.8,456.9,1481.5z M316.9,1478.5c0-38.7,31.3-71,70-71c38.7,0,70,32.3,70,71"/><path fill="#010101" d="M456.9,1479.2c0,38.7-31.3,70-70,70c-38.7,0-70-31.3-70-70c0-38.7,31.3-70,70-70C425.6,1409.2,456.9,1440.5,456.9,1479.2z"/><linearGradient id="SVGID_3_" gradientUnits="userSpaceOnUse" x1="386.9482" y1="1478.5664" x2="386.9482" y2="1550.4286"><stop  offset="0" style="stop-color:#FFFFFF"/><stop  offset="1" style="stop-color:#FFFFFF;stop-opacity:0"/></linearGradient><path opacity="0.1" fill="url(#SVGID_3_)" d="M387,1549.2c38.2,0,69.2-30.5,70-68.5c-19.2,3.1-45.6,5.2-70,5.2c0,0-45.6-0.1-70-5.7C317.4,1518.4,348.6,1549.2,387,1549.2z"/><path opacity="0.2" fill="#FFFFFF" d="M400.9,1457.2c4.4,0,8,3.6,8,8v28c0,4.4-3.6,8-8,8h-28c-4.4,0-8-3.6-8-8v-28c0-4.4,3.6-8,8-8H400.9 M400.9,1452.2h-28c-7.2,0-13,5.8-13,13v28c0,7.2,5.8,13,13,13h28c7.2,0,13-5.8,13-13v-28C413.9,1458,408.1,1452.2,400.9,1452.2L400.9,1452.2z"/></g><g><path opacity="0.1" fill="#FFFFFF" d="M456.9,160.7c0,8.6-6.9,15.5-15.5,15.5h-109c-8.6,0-15.5-6.9-15.5-15.5l0,0c0-8.6,6.9-15.5,15.5-15.5h109C450,145.2,456.9,152.1,456.9,160.7L456.9,160.7z"/><linearGradient id="SVGID_4_" gradientUnits="userSpaceOnUse" x1="386.9482" y1="175.0844" x2="386.9482" y2="144.0845"><stop  offset="0" style="stop-color:#010101"/><stop  offset="1" style="stop-color:#231F20"/></linearGradient><path fill="url(#SVGID_4_)" d="M456.9,159.7c0,8.6-6.9,15.5-15.5,15.5h-109c-8.6,0-15.5-6.9-15.5-15.5l0,0c0-8.6,6.9-15.5,15.5-15.5h109C450,144.2,456.9,151.1,456.9,159.7L456.9,159.7z"/><linearGradient id="SVGID_5_" gradientUnits="userSpaceOnUse" x1="321.6266" y1="161.8936" x2="335.111" y2="173.2711"><stop  offset="0" style="stop-color:#FFFFFF"/><stop  offset="1" style="stop-color:#FFFFFF;stop-opacity:0"/></linearGradient><path opacity="0.2" fill="url(#SVGID_5_)" d="M325.4,162.9c-1.1,0.5-6,3.2-6.8,3.6c2.5,5.1,7.8,8.6,13.9,8.6h3.9c0.9-1.6,2.7-5.1,3.2-7c-2.6,0-7.5,0.5-10.4-0.8C326.4,166.1,325.6,163.1,325.4,162.9z"/><linearGradient id="SVGID_6_" gradientUnits="userSpaceOnUse" x1="445.6578" y1="156.8236" x2="444.8593" y2="173.6534"><stop  offset="0" style="stop-color:#FFFFFF"/><stop  offset="1" style="stop-color:#FFFFFF;stop-opacity:0"/></linearGradient><path opacity="0.2" fill="url(#SVGID_6_)" d="M448.2,163.7c-1.1,1.9-2.5,4.9-11.4,4.4c0,3.4-0.2,6.2-0.3,7h5c4.8,0,9.2-2.2,12-5.7C452.1,168.1,449.4,164.9,448.2,163.7z"/><linearGradient id="SVGID_7_" gradientUnits="userSpaceOnUse" x1="324.9482" y1="160.1509" x2="448.9482" y2="160.1509"><stop  offset="0" style="stop-color:#010101"/><stop  offset="1" style="stop-color:#231F20"/></linearGradient><path fill="url(#SVGID_7_)" d="M441.4,152.2h-109c-4.1,0-7.5,3.6-7.5,8c0,4.4,3.4,8,7.5,8h109c4.1,0,7.5-3.6,7.5-8C448.9,155.7,445.6,152.2,441.4,152.2z"/></g><g><path opacity="0.1" fill-rule="evenodd" clip-rule="evenodd" fill="#FFFFFF" d="M386.9,81c7.7,0,14,6.3,14,14c0,7.7-6.3,14-14,14c-7.7,0-14-6.3-14-14C372.9,87.3,379.2,81,386.9,81z"/><path opacity="0.7" fill-rule="evenodd" clip-rule="evenodd" fill="#010101" d="M386.9,80c7.7,0,14,6.3,14,14c0,7.7-6.3,14-14,14c-7.7,0-14-6.3-14-14C372.9,86.3,379.2,80,386.9,80z"/><path fill-rule="evenodd" clip-rule="evenodd" fill="#231F20" d="M386.9,87.9c3.8,0,6.8,3,6.8,6.8s-3,6.8-6.8,6.8c-3.8,0-6.8-3-6.8-6.8S383.2,87.9,386.9,87.9z"/><linearGradient id="SVGID_8_" gradientUnits="userSpaceOnUse" x1="381.7482" y1="94.7185" x2="392.1484" y2="94.7185"><stop  offset="0" style="stop-color:#2075BC"/><stop  offset="1" style="stop-color:#804099"/></linearGradient><path fill-rule="evenodd" clip-rule="evenodd" fill="url(#SVGID_8_)" d="M386.9,89.5c2.9,0,5.2,2.3,5.2,5.2c0,2.9-2.3,5.2-5.2,5.2c-2.9,0-5.2-2.3-5.2-5.2C381.7,91.8,384.1,89.5,386.9,89.5z"/><path fill-rule="evenodd" clip-rule="evenodd" fill="#FFFFFF" d="M386.9,90.4c1.2,0,2.2,0.8,2.2,1.8c0,1-1,1.8-2.2,1.8c-1.2,0-2.2-0.8-2.2-1.8C384.7,91.2,385.7,90.4,386.9,90.4z"/></g><linearGradient id="SVGID_9_" gradientUnits="userSpaceOnUse" x1="386.9482" y1="198.8921" x2="386.9482" y2="1466.7754"><stop  offset="0" style="stop-color:#010101"/><stop  offset="1" style="stop-color:#2075BC"/></linearGradient><path fill-rule="evenodd" clip-rule="evenodd" fill="url(#SVGID_9_)" d="M66.9,239.5h640v1136h-640V239.5z"/><path fill="#1A1A1A" d="M706.9,239.5v1136h-640v-1136H706.9 M706.9,234.5h-640c-2.8,0-5,2.2-5,5v1136c0,2.8,2.2,5,5,5h640c2.8,0,5-2.2,5-5v-1136C711.9,236.8,709.7,234.5,706.9,234.5L706.9,234.5z"/><linearGradient id="SVGID_10_" gradientUnits="userSpaceOnUse" x1="3.4892" y1="347.4626" x2="3.4892" y2="454.1439"><stop  offset="0" style="stop-color:#56B8E8"/><stop  offset="6.891746e-02" style="stop-color:#FFFFFF"/><stop  offset="0.175" style="stop-color:#56B8E8"/><stop  offset="0.7768" style="stop-color:#56B8E8"/><stop  offset="0.8646" style="stop-color:#FFFFFF"/><stop  offset="0.9477" style="stop-color:#56B8E8"/></linearGradient><path fill="url(#SVGID_10_)" d="M0,349.8v102.4c0,1.1,1.6,2.8,2.8,2.8H7V347H3.1C1.9,347,0,348.7,0,349.8z"/><linearGradient id="SVGID_11_" gradientUnits="userSpaceOnUse" x1="517.0001" y1="4" x2="638.9785" y2="4"><stop  offset="0" style="stop-color:#56B8E8"/><stop  offset="6.891746e-02" style="stop-color:#FFFFFF"/><stop  offset="0.175" style="stop-color:#56B8E8"/><stop  offset="0.7768" style="stop-color:#56B8E8"/><stop  offset="0.8646" style="stop-color:#FFFFFF"/><stop  offset="0.9477" style="stop-color:#56B8E8"/></linearGradient><path fill="url(#SVGID_11_)" d="M635.3,0H520.6C519,0,517,2.1,517,3.7V8h122V3.7C639,2,636.9,0,635.3,0z"/><linearGradient id="SVGID_12_" gradientUnits="userSpaceOnUse" x1="3.4892" y1="495.1091" x2="3.4892" y2="602.8326"><stop  offset="0" style="stop-color:#56B8E8"/><stop  offset="6.891746e-02" style="stop-color:#FFFFFF"/><stop  offset="0.175" style="stop-color:#56B8E8"/><stop  offset="0.7768" style="stop-color:#56B8E8"/><stop  offset="0.8646" style="stop-color:#FFFFFF"/><stop  offset="0.9477" style="stop-color:#56B8E8"/></linearGradient><path fill="url(#SVGID_12_)" d="M0,497.8v102.4c0,1.1,1.6,2.7,2.8,2.7H7V495H3.1C1.9,495,0,496.7,0,497.8z"/><linearGradient id="SVGID_13_" gradientUnits="userSpaceOnUse" x1="3.9892" y1="232.1455" x2="3.9892" y2="299.8669"><stop  offset="0" style="stop-color:#56B8E8"/><stop  offset="6.891746e-02" style="stop-color:#FFFFFF"/><stop  offset="0.175" style="stop-color:#56B8E8"/><stop  offset="0.7768" style="stop-color:#56B8E8"/><stop  offset="0.8646" style="stop-color:#FFFFFF"/><stop  offset="0.9477" style="stop-color:#56B8E8"/></linearGradient><path fill="url(#SVGID_13_)" d="M3.1,301H7v-70H3.1C2,231,1,231.9,1,233v66C1,300.1,2,301,3.1,301z"/><linearGradient id="SVGID_14_" gradientUnits="userSpaceOnUse" x1="573.4376" y1="137.1724" x2="730.947" y2="887.3109"><stop  offset="0" style="stop-color:#FFFFFF"/><stop  offset="1" style="stop-color:#FFFFFF;stop-opacity:0"/></linearGradient><path opacity="0.1" fill="url(#SVGID_14_)" d="M723.2,60.4c-8.5-9.8-19-17.4-31.2-22.8c-13.8-6-29.9-9.1-47.7-9.1h-7.5H372.9l11.3,51.7c0.9-0.2,1.7-0.3,2.7-0.3c7.7,0,14,6.3,14,14c0,6.6-4.5,12.1-10.7,13.6l8,36.6h43.1c8.6,0,15.5,6.9,15.5,15.5c0,8.6-6.9,15.5-15.5,15.5h-36.3l305.2,1391.6c4.7-3.6,9-7.6,12.9-12.1c14.4-16.7,22.7-39.3,22.7-62.1v-35.1V157.6v-35.1C745.9,99.7,737.7,77.1,723.2,60.4z"/></g></g></svg>